# xmcd CD database file
#
# Track frame offsets:
#	150
#	17353
#	35148
#	52625
#	73901
#	95077
#	116824
#	138767
#	153169
#	171501
#	195893
#	217251
#	235956
#	252922
#	273104
#
# Disc length: 3884 seconds
#
# Revision: 1
# Processed by: cddbd v1.5.2PL0 Copyright (c) Steve Scherf et al.
# Submitted via: CDex 1.82
#
DISCID=d00f2a0f
DTITLE=Durham, Conte and Farao Trio - Romantic Lounge
DYEAR=1900
DGENRE=Jazz
TTITLE0=You don't Have To Say You Love Me
TTITLE1=Melody Fair
TTITLE2=La Reine De Saba
TTITLE3=Till
TTITLE4=When You Wish Upon A Star
TTITLE5=Three Cains In The Fountain
TTITLE6=More
TTITLE7=Fascination
TTITLE8=Moon River
TTITLE9=Adoro
TTITLE10=Some Enchanted Evening
TTITLE11=Unchained Melody
TTITLE12=Love Letter In The Sand
TTITLE13=I Left My Heart In San Francisco
TTITLE14=Hey Jude
EXTD=
EXTT0=
EXTT1=
EXTT2=
EXTT3=
EXTT4=
EXTT5=
EXTT6=
EXTT7=
EXTT8=
EXTT9=
EXTT10=
EXTT11=
EXTT12=
EXTT13=
EXTT14=
PLAYORDER=
